<?xml version="1.0" standalone="no"?>
<!DOCTYPE svg PUBLIC "-//W3C//DTD SVG 20010904//EN"
 "http://www.w3.org/TR/2001/REC-SVG-20010904/DTD/svg10.dtd">
<svg version="1.0" xmlns="http://www.w3.org/2000/svg"
 width="406.000000pt" height="406.000000pt" viewBox="0 0 406.000000 406.000000"
 preserveAspectRatio="xMidYMid meet">
<metadata>
Created by potrace 1.14, written by Peter Selinger 2001-2017
</metadata>
<g transform="translate(0.000000,406.000000) scale(0.100000,-0.100000)"
fill="#000000" stroke="none">
<path d="M1638 3825 c-2 -2 -30 -6 -63 -10 -368 -39 -758 -229 -1035 -505 -47
-47 -104 -107 -125 -135 -22 -27 -43 -52 -46 -55 -4 -3 -34 -48 -69 -100 -150
-229 -256 -521 -286 -785 -12 -105 -10 -306 3 -415 80 -671 529 -1242 1157
-1475 105 -39 258 -80 341 -91 28 -3 59 -8 70 -11 35 -9 794 -10 858 -1 52 7
134 21 197 33 181 35 422 140 607 264 492 329 794 892 793 1481 0 248 -30 419
-112 638 -52 140 -156 339 -214 411 -7 9 -39 50 -72 91 -119 152 -308 316
-479 416 -210 124 -392 189 -673 240 -35 6 -846 15 -852 9z"/>
</g>
</svg>
