<?xml version="1.0" standalone="no"?>
<!DOCTYPE svg PUBLIC "-//W3C//DTD SVG 20010904//EN"
 "http://www.w3.org/TR/2001/REC-SVG-20010904/DTD/svg10.dtd">
<svg version="1.0" xmlns="http://www.w3.org/2000/svg"
 width="700.000000pt" height="700.000000pt" viewBox="0 0 700.000000 700.000000"
 preserveAspectRatio="xMidYMid meet">
<metadata>
Created by potrace 1.14, written by Peter Selinger 2001-2017
</metadata>
<g transform="translate(0.000000,700.000000) scale(0.100000,-0.100000)"
fill="#000000" stroke="none">
<path d="M3635 6599 c-49 -5 -137 -8 -195 -7 -507 12 -727 -2 -995 -62 -607
-135 -1122 -422 -1556 -866 -464 -475 -747 -1048 -851 -1719 -29 -191 -36
-549 -14 -762 135 -1307 1077 -2385 2356 -2697 305 -74 678 -103 980 -76 71 7
135 6 200 -2 129 -15 479 -14 620 1 378 41 720 139 1048 301 981 481 1628
1416 1733 2504 17 176 6 576 -20 744 -52 340 -151 646 -305 949 -472 928
-1349 1543 -2391 1678 -146 19 -487 27 -610 14z m1090 -1919 c287 -54 492
-191 595 -397 65 -132 63 -248 -6 -315 -42 -41 -84 -56 -160 -57 -49 -1 -73 5
-114 27 -53 27 -66 42 -150 178 -86 139 -264 208 -474 185 -121 -14 -190 -44
-256 -110 -117 -117 -106 -276 24 -366 77 -53 157 -78 408 -130 330 -68 449
-107 585 -191 173 -107 262 -276 263 -496 1 -369 -235 -632 -650 -723 -103
-22 -372 -31 -494 -16 -199 25 -380 92 -503 185 -157 119 -250 318 -213 456
25 95 135 160 243 144 87 -14 131 -48 189 -148 59 -100 110 -151 192 -191 102
-51 197 -68 331 -62 163 8 266 48 344 132 54 58 71 100 71 170 0 101 -48 173
-150 225 -80 40 -163 64 -391 110 -255 51 -341 77 -470 141 -82 42 -117 67
-179 128 -119 118 -169 244 -170 427 -1 364 287 643 726 703 84 12 327 6 409
-9z m-1359 -35 c54 -16 106 -62 123 -108 27 -72 5 -183 -46 -229 -52 -47 -84
-52 -375 -56 l-278 -4 0 -887 c0 -993 2 -959 -68 -1029 -45 -45 -96 -62 -183
-62 -122 0 -204 61 -228 170 -7 29 -11 362 -11 928 l0 882 -232 0 c-128 0
-262 5 -297 10 -118 17 -180 85 -181 198 0 93 47 161 131 187 68 21 1574 21
1645 0z"/>
</g>
</svg>
